<svg width="20" height="20" viewBox="0 0 20 20" fill="none" xmlns="http://www.w3.org/2000/svg">
<path d="M19.4334 5.36666C19.4928 5.31737 19.5372 5.2526 19.5619 5.17955C19.5865 5.1065 19.5904 5.02803 19.5732 4.95288C19.5559 4.87774 19.5181 4.80886 19.464 4.75391C19.4099 4.69896 19.3417 4.66011 19.2668 4.64166L18.6084 4.475C18.5486 4.46001 18.4928 4.43191 18.4451 4.39274C18.3974 4.35356 18.3591 4.3043 18.3328 4.24848C18.3064 4.19266 18.2929 4.1317 18.2929 4.06999C18.2931 4.00828 18.3069 3.94737 18.3334 3.89166L18.7001 3.15C18.7348 3.07813 18.748 2.99782 18.7384 2.91863C18.7287 2.83944 18.6965 2.76468 18.6456 2.70325C18.5947 2.64182 18.5273 2.59629 18.4512 2.57208C18.3752 2.54786 18.2939 2.54599 18.2168 2.56666L16.5501 3.03333C16.488 3.05144 16.4225 3.05485 16.3589 3.04327C16.2953 3.03171 16.2352 3.00547 16.1834 2.96666C15.4622 2.42574 14.585 2.13333 13.6834 2.13333C12.5784 2.13333 11.5186 2.57231 10.7372 3.35371C9.95577 4.13512 9.51677 5.19493 9.51677 6.3V6.6C9.51719 6.65118 9.49869 6.70071 9.46486 6.73913C9.43102 6.77756 9.38427 6.80219 9.33344 6.80833C6.99178 7.08333 4.75011 5.89166 2.33345 3.10833C2.28095 3.05043 2.21351 3.00813 2.13852 2.98607C2.06354 2.96402 1.98393 2.96307 1.90845 2.98333C1.84045 3.01459 1.78211 3.06358 1.73959 3.12517C1.69706 3.18676 1.67192 3.25866 1.66678 3.33333C1.333 4.70445 1.46795 6.14785 2.05011 7.43333C2.06734 7.46742 2.07486 7.5056 2.07185 7.54368C2.06884 7.58176 2.05542 7.61828 2.03306 7.64925C2.01069 7.68021 1.98024 7.70444 1.94504 7.71926C1.90983 7.7341 1.87123 7.73896 1.83345 7.73333L0.900115 7.55C0.833832 7.53934 0.765958 7.54486 0.702268 7.56607C0.638577 7.5873 0.580956 7.62359 0.534311 7.67187C0.487667 7.72016 0.453378 7.77899 0.434366 7.84338C0.415353 7.90776 0.41218 7.97579 0.425115 8.04166C0.497064 8.68116 0.711927 9.29633 1.0538 9.84166C1.39567 10.3869 1.8558 10.8483 2.40011 11.1917C2.43534 11.2087 2.46504 11.2353 2.48583 11.2685C2.50661 11.3017 2.51764 11.34 2.51764 11.3792C2.51764 11.4183 2.50661 11.4567 2.48583 11.4898C2.46504 11.523 2.43534 11.5496 2.40011 11.5667L1.95845 11.7417C1.90481 11.7632 1.85623 11.7956 1.8158 11.8369C1.77537 11.8782 1.74397 11.9274 1.72359 11.9815C1.70322 12.0356 1.69431 12.0932 1.69744 12.151C1.70057 12.2087 1.71567 12.2651 1.74178 12.3167C1.98602 12.8511 2.35625 13.3183 2.8207 13.6782C3.28515 14.0382 3.82997 14.2802 4.40845 14.3833C4.44867 14.3979 4.48342 14.4246 4.50797 14.4596C4.53253 14.4947 4.54571 14.5364 4.54571 14.5792C4.54571 14.6219 4.53253 14.6637 4.50797 14.6987C4.48342 14.7337 4.44867 14.7604 4.40845 14.775C3.27541 15.2436 2.0595 15.4788 0.833448 15.4667C0.722942 15.4446 0.608181 15.4672 0.514413 15.5297C0.420645 15.5922 0.35555 15.6895 0.333448 15.8C0.311348 15.9105 0.33405 16.0252 0.396562 16.119C0.459074 16.2128 0.556275 16.2779 0.666782 16.3C2.78973 17.3068 5.1011 17.8549 7.45012 17.9083C9.51636 17.9398 11.5458 17.36 13.2834 16.2417C14.7128 15.2875 15.8839 13.9946 16.6923 12.4781C17.5007 10.9615 17.9214 9.2685 17.9168 7.55V6.825C17.9173 6.76449 17.9309 6.70481 17.9569 6.65013C17.9828 6.59544 18.0203 6.54706 18.0668 6.50833L19.4334 5.36666Z" fill="white"/>
</svg>
